<?xml version="1.0" encoding="UTF-8"?>
<svg width="50px" height="34px" viewBox="0 0 50 34" version="1.1" xmlns="http://www.w3.org/2000/svg" xmlns:xlink="http://www.w3.org/1999/xlink">
    <!-- Generator: Sketch 55.1 (78136) - https://sketchapp.com -->
    <title>Icon / Browse - white</title>
    <desc>Created with Sketch.</desc>
    <g id="Icon-/-Browse---white" stroke="none" stroke-width="1" fill="none" fill-rule="evenodd">
        <g id="Grid" transform="translate(0.000000, 3.000000)" fill="#FFFFFF" fill-rule="nonzero">
            <path d="M17.6621533,-5.59023938e-11 C15.7219709,2.06719006 14.381021,4.70347132 13.9165684,7.63157895 L10.6842105,7.63157895 L10.6842105,0 L17.6621533,0 Z M13.7565805,10.6842105 C13.9036347,13.5201825 14.865535,16.1405918 16.4126327,18.3157895 L10.6842105,18.3157895 L10.6842105,10.6842105 L13.7565805,10.6842105 Z M29,24.4013142 L29,29 L21.3684211,29 L21.3684211,22.6943213 C23.4127655,23.7959153 25.7517995,24.4210526 28.2368421,24.4210526 C28.4928316,24.4210526 28.7472718,24.414419 29,24.4013142 Z M0,0 L7.63157895,0 L7.63157895,7.63157895 L0,7.63157895 L0,0 Z M0,10.6842105 L7.63157895,10.6842105 L7.63157895,18.3157895 L0,18.3157895 L0,10.6842105 Z M0,21.3684211 L7.63157895,21.3684211 L7.63157895,29 L0,29 L0,21.3684211 Z M10.6842105,21.3684211 L18.3157895,21.3684211 L18.3157895,29 L10.6842105,29 L10.6842105,21.3684211 Z" id="Combined-Shape"></path>
            <polygon id="Box-Back-2" points="22.8947368 0 22.8947368 6.10526316 16.7894737 6.10526316"></polygon>
            <polygon id="Box-Back-2" points="16.7894737 12.2105263 22.8947368 12.2105263 22.8947368 19.8421053"></polygon>
        </g>
        <g id="Glass" transform="translate(16.000000, 0.000000)" fill="#FFFFFF" fill-rule="nonzero">
            <polygon id="Line" points="19.4920667 21.6470588 21.6470588 19.4920667 33.919394 31.7644019 31.7644019 33.919394"></polygon>
            <path d="M12.952381,25.9047619 C5.79897848,25.9047619 0,20.1057834 0,12.952381 C0,5.79897848 5.79897848,0 12.952381,0 C20.1057834,0 25.9047619,5.79897848 25.9047619,12.952381 C25.9047619,20.1057834 20.1057834,25.9047619 12.952381,25.9047619 Z M12.952381,22.8571429 C18.4226299,22.8571429 22.8571429,18.4226299 22.8571429,12.952381 C22.8571429,7.482132 18.4226299,3.04761905 12.952381,3.04761905 C7.482132,3.04761905 3.04761905,7.482132 3.04761905,12.952381 C3.04761905,18.4226299 7.482132,22.8571429 12.952381,22.8571429 Z" id="Oval"></path>
        </g>
    </g>
</svg>