<?xml version="1.0" encoding="utf-8"?>
<!-- Generator: Adobe Illustrator 23.0.3, SVG Export Plug-In . SVG Version: 6.00 Build 0)  -->
<svg version="1.1" id="Layer_1" xmlns="http://www.w3.org/2000/svg" xmlns:xlink="http://www.w3.org/1999/xlink" x="0px" y="0px"
	 viewBox="0 0 40 40" style="enable-background:new 0 0 40 40;" xml:space="preserve">
<style type="text/css">
	.st0{fill-rule:evenodd;clip-rule:evenodd;}
</style>
<title>Playlist Icon</title>
<desc>Created with Sketch.</desc>
<g id="Symbols">
	<g id="CTV-tile-16x9-playlist-Hosted" transform="translate(-483.000000, -25.000000)">
		<g id="Playlist-Icon" transform="translate(483.000000, 25.000000)">
			<path id="Fill-1" class="st0" d="M6.1,7.9h27.5c0.7,0,1.3-0.6,1.3-1.2s-0.6-1.2-1.3-1.2H6.1C5.4,5.4,4.8,6,4.8,6.7
				S5.4,7.9,6.1,7.9"/>
			<path id="Fill-3" class="st0" d="M10.9,3.1h17.5c0.7,0,1.3-0.6,1.3-1.2S29,0.6,28.3,0.6H10.9c-0.7,0-1.3,0.6-1.3,1.2
				S10.2,3.1,10.9,3.1"/>
			<g id="Group-9" transform="translate(0.000000, 8.960000)">
				<path id="Fill-7" class="st0" d="M26.9,17.1l-10,6.3c-0.6,0.4-1.4,0.2-1.7-0.4c-0.1-0.2-0.2-0.4-0.2-0.7V9.7
					c0-0.7,0.6-1.3,1.2-1.3c0.2,0,0.5,0.1,0.7,0.2l10,6.3c0.6,0.4,0.8,1.1,0.4,1.7C27.2,16.8,27.1,17,26.9,17.1L26.9,17.1z
					 M38.8,1.6H1.3C0.6,1.6,0,2.1,0,2.6c0,0,0,0,0,0v26.7c0,0.6,0.6,1,1.2,1h0h37.5c0.7,0,1.2-0.5,1.3-1v0V2.6
					C40,2.1,39.4,1.6,38.8,1.6L38.8,1.6z"/>
			</g>
		</g>
	</g>
</g>
</svg>
