<?xml version="1.0" encoding="utf-8"?>
<!-- Generator: Adobe Illustrator 23.0.4, SVG Export Plug-In . SVG Version: 6.00 Build 0)  -->
<svg version="1.1" id="Layer_1" xmlns="http://www.w3.org/2000/svg" xmlns:xlink="http://www.w3.org/1999/xlink" x="0px" y="0px"
	 viewBox="0 0 40 40" style="enable-background:new 0 0 40 40;" xml:space="preserve">
<style type="text/css">
	.st0{fill-rule:evenodd;clip-rule:evenodd;}
</style>
<title>Fill 7</title>
<desc>Created with Sketch.</desc>
<g id="Symbols">
	<g id="CTV-tile-16x9-clip-default" transform="translate(-483.000000, -25.000000)">
		<path id="Fill-7" class="st0" d="M510.2,46.1l-9.8,6.5c-0.6,0.4-1.3,0.2-1.7-0.4c-0.1-0.2-0.2-0.4-0.2-0.7v-13
			c0-0.7,0.5-1.3,1.2-1.3c0.2,0,0.5,0.1,0.6,0.2l9.8,6.5c0.6,0.4,0.7,1.2,0.4,1.8C510.5,45.9,510.4,46,510.2,46.1L510.2,46.1z
			 M521.8,30.6h-37.5c-0.7,0-1.2,0.5-1.2,1c0,0,0,0,0,0v26.8c0,0.6,0.6,1,1.2,1h0h37.5c0.7,0,1.2-0.5,1.2-1v0V31.6
			C523,31,522.4,30.6,521.8,30.6L521.8,30.6z"/>
	</g>
</g>
</svg>
