<?xml version="1.0" encoding="utf-8"?>
<!-- Generator: Adobe Illustrator 23.0.4, SVG Export Plug-In . SVG Version: 6.00 Build 0)  -->
<svg version="1.1" id="Layer_1" xmlns="http://www.w3.org/2000/svg" xmlns:xlink="http://www.w3.org/1999/xlink" x="0px" y="0px"
	 viewBox="0 0 24 24" style="enable-background:new 0 0 24 24;" xml:space="preserve">
<g id="ibFsxQ.tif">
	<g>
		<path d="M11.6,13.9C11.6,13.9,11.6,13.9,11.6,13.9c0-0.7,0-1.3,0-1.9c0-0.1,0-0.1,0.1-0.1c0.3-0.3,0.5-0.6,0.8-0.9
			c0.3-0.3,0.5-0.6,0.8-0.9c0.3-0.3,0.6-0.7,0.9-1c0.3-0.3,0.5-0.6,0.8-0.9c0.3-0.3,0.6-0.7,0.9-1c0.3-0.4,0.7-0.7,1-1.1
			c0.3-0.4,0.6-0.7,1-1.1C17.8,5.1,17.8,5,17.9,5c0.1,0,0.2,0,0.2,0c1.2,0,2.3,0,3.5,0c0,0,0.1,0,0.1,0c0,0.3,0,0.6,0,0.9
			c0,0.3,0,0.6,0,0.9c0,0.3,0,0.6,0,0.9c0,0.3,0,0.6,0,0.9s0,0.6,0,0.9s0,0.6,0,0.9s0,0.6,0,0.9c0,0.3,0,0.6,0,0.9
			c0.6,0,1.3,0,1.9,0c0,0.6,0,1.2,0,1.8c-0.2,0-0.4,0-0.6,0c-0.2,0-0.4,0-0.6,0c-0.2,0-0.4,0-0.6,0c0,0,0,0,0,0c0,0,0,0,0,0
			c0,0,0,0,0,0c0,0.8,0,1.6,0,2.5c0,0,0,0,0,0c-0.1,0-3.3,0-3.4,0c0-0.8,0-1.7,0-2.5C16.1,13.9,13.8,13.9,11.6,13.9z M14.1,12.1
			c0.1,0,4.2,0,4.3,0c0,0,0-0.1,0-0.1c0-0.4,0-0.8,0-1.2c0-0.4,0-0.9,0-1.3c0-0.2,0-0.5,0-0.7c0-0.3,0-0.6,0-0.9c0-0.2,0-0.5,0-0.7
			c0,0,0,0,0,0C17,8.9,15.5,10.5,14.1,12.1z"/>
		<path d="M9,16.5c-1.1,0-2.3,0-3.4,0c0-2.6,0-5.3,0-7.9c-0.3,0-0.7,0-1,0c-0.3,0-0.7,0-1,0c-0.3,0-0.7,0-1,0c-0.3,0-0.7,0-1,0
			c0-0.5,0-1.1,0-1.6c0,0,0.1,0,0.1,0c0.2,0,0.5,0,0.7,0c0.6,0,1.3-0.1,1.9-0.2c0.4-0.1,0.8-0.3,1.2-0.5C5.7,6,5.9,5.8,6.1,5.5
			C6.1,5.4,6.2,5.2,6.2,5c0,0,0,0,0-0.1C7.2,5,8.1,5,9,5C9,5,9,16.3,9,16.5z"/>
		<path d="M14.3,19.5c-0.5,0-0.9,0-1.4,0c0-0.1,0-0.1,0-0.2c-0.1-0.3-0.3-0.5-0.6-0.6c-0.2-0.1-0.4-0.1-0.5-0.1c-0.3,0-0.5,0-0.7,0
			c-0.2,0-0.4,0.1-0.5,0.2c-0.2,0.2-0.3,0.6-0.1,0.8c0.1,0.1,0.2,0.1,0.3,0.2c0.2,0.1,0.3,0.1,0.5,0.1c0.6,0.1,1.2,0.3,1.8,0.4
			c0.3,0.1,0.6,0.2,0.9,0.4c0.4,0.2,0.6,0.6,0.6,1c0,0.3,0,0.6-0.1,0.8c-0.1,0.4-0.3,0.7-0.7,0.9c-0.3,0.2-0.7,0.4-1.2,0.5
			C12.2,24,11.9,24,11.5,24c-0.5,0-1-0.1-1.4-0.3c-0.3-0.1-0.5-0.3-0.8-0.5c-0.3-0.3-0.5-0.6-0.5-1c0-0.1,0-0.2,0-0.4
			c0.5,0,0.9,0,1.4,0c0,0,0,0.1,0,0.1c0.1,0.4,0.3,0.6,0.6,0.8c0.2,0.1,0.4,0.1,0.7,0.1c0.3,0,0.6,0,0.8-0.1c0.2,0,0.4-0.1,0.5-0.2
			c0.2-0.1,0.2-0.3,0.2-0.5c0-0.2-0.1-0.3-0.3-0.4c-0.2-0.1-0.4-0.2-0.6-0.2c-0.5-0.1-1-0.2-1.5-0.3c-0.4-0.1-0.7-0.2-1-0.3
			c-0.5-0.2-0.7-0.6-0.8-1.1c-0.1-0.4,0-0.8,0.2-1.2c0.2-0.3,0.4-0.5,0.7-0.7c0.4-0.2,0.7-0.3,1.2-0.3c0.2,0,0.4,0,0.6,0
			c0.5,0,0.9,0.1,1.3,0.2c0.5,0.2,0.8,0.5,1.1,0.9c0.1,0.2,0.2,0.5,0.2,0.8C14.3,19.4,14.3,19.4,14.3,19.5z"/>
		<path d="M22.5,0c-0.1,0.1-0.2,0.2-0.3,0.3c-0.2,0.2-0.3,0.3-0.5,0.5c-0.4,0.4-0.8,0.8-1.2,1.1c-0.2,0.2-0.3,0.3-0.5,0.5
			c-0.3,0.3-0.6,0.6-0.9,0.9c-0.2,0.2-0.4,0.4-0.5,0.5c-0.1,0.1-0.3,0.2-0.4,0.4c0,0-0.1,0-0.1,0c-0.7,0-1.5,0-2.2,0
			c-0.1,0-0.2,0-0.3,0c-0.1,0-0.1-0.1-0.2-0.2c-0.1-0.1-0.3-0.2-0.4-0.4c-0.2-0.2-0.4-0.4-0.6-0.6c-0.2-0.2-0.5-0.5-0.7-0.7
			c-0.2-0.2-0.5-0.5-0.7-0.7c-0.2-0.2-0.5-0.5-0.7-0.7c-0.2-0.2-0.5-0.5-0.7-0.7c-0.1-0.1-0.1-0.1-0.2-0.2c0,0,0.1,0,0.1,0
			c0.9,0,1.8,0,2.7,0c0.1,0,0.1,0,0.1,0.1c0.5,0.6,1,1.1,1.5,1.7c0.4,0.5,0.8,0.9,1.2,1.4c0,0,0,0,0,0c0,0,0.1-0.1,0.1-0.1
			c0.4-0.5,0.8-1,1.2-1.4c0.4-0.5,0.8-0.9,1.2-1.4c0-0.1,0.1-0.1,0.1-0.2c0,0,0.1-0.1,0.1-0.1c0.5,0,1.1,0,1.6,0c0.3,0,0.7,0,1,0
			C22.4,0,22.4,0,22.5,0z"/>
		<path d="M10.7,0.8c-1.3,0-2.6,0-3.9,0c0,1.2,0,2.3,0,3.4c-0.9,0-1.8,0-2.7,0c0-1.1,0-2.3,0-3.4c-1.3,0-2.6,0-3.9,0
			c0-0.3,0-0.5,0-0.7c0.1,0,10.1,0,10.4,0C10.7,0.1,10.7,0.6,10.7,0.8z"/>
	</g>
</g>
</svg>
