<?xml version="1.0" encoding="UTF-8"?>
<svg width="36px" height="34px" viewBox="0 0 36 34" version="1.1" xmlns="http://www.w3.org/2000/svg" xmlns:xlink="http://www.w3.org/1999/xlink">
    <!-- Generator: Sketch 55.1 (78136) - https://sketchapp.com -->
    <title>Icon / User Menu - white</title>
    <desc>Created with Sketch.</desc>
    <g id="Icon-/-User-Menu---white" stroke="none" stroke-width="1" fill="none" fill-rule="evenodd">
        <path d="M2.00584254,32 C2.00196637,31.9359586 2,31.8714236 2,31.8064516 C2,25.6322581 5.45967742,20.0435484 10.7822581,17.2225806 C9.61129032,15.6258065 8.91935484,13.7096774 8.91935484,11.5806452 C8.91935484,6.31129032 13.2306452,2 18.5,2 C23.7693548,2 28.0806452,6.31129032 28.0806452,11.5806452 C28.0806452,13.7096774 27.3887097,15.6258065 26.2177419,17.2225806 C31.5403226,20.0967742 35,25.6854839 35,31.8064516 C35,31.8714236 34.9980336,31.9359586 34.9941575,32 L2.00584254,32 L2.00584254,32 Z M13.1190588,19.4705882 C8.17294118,21.6447059 4.91176471,26.5364706 4.91176471,31.9717647 L32.0882353,31.9717647 C32.0882353,26.5364706 28.8270588,21.6447059 23.8809412,19.4705882 C22.3590588,20.5032941 20.5110588,21.1011765 18.5,21.1011765 C16.5432941,21.1011765 14.6409412,20.5032941 13.1190588,19.4705882 Z M18.5,4.91176471 C14.7632353,4.91176471 11.7058824,7.96911765 11.7058824,11.7058824 C11.7058824,15.4426471 14.7632353,18.5 18.5,18.5 C22.2367647,18.5 25.2941176,15.4426471 25.2941176,11.7058824 C25.2941176,7.96911765 22.2367647,4.91176471 18.5,4.91176471 Z" id="Shape" fill="#FFFFFF"></path>
    </g>
</svg>