<?xml version="1.0" encoding="utf-8"?>
<!-- Generator: Adobe Illustrator 23.0.4, SVG Export Plug-In . SVG Version: 6.00 Build 0)  -->
<svg version="1.1" id="Layer_1" xmlns="http://www.w3.org/2000/svg" xmlns:xlink="http://www.w3.org/1999/xlink" x="0px" y="0px"
	 viewBox="0 0 24 24" style="enable-background:new 0 0 24 24;" xml:space="preserve">
<path d="M21.6,2.9h-1.2V1H18v1.9H6V1H3.6v1.9H2.4C1.1,2.9,0,3.8,0,4.8v15.3c0,1.1,1.1,1.9,2.4,1.9h19.2c1.3,0,2.4-0.9,2.4-1.9V4.8
	C24,3.8,22.9,2.9,21.6,2.9z M21.6,20.1H2.4V7.7h19.2V20.1z"/>
<rect x="4.2" y="10.3" width="2.9" height="2.9"/>
<rect x="8.3" y="10.3" width="2.9" height="2.9"/>
<rect x="12.6" y="10.3" width="2.9" height="2.9"/>
<rect x="16.9" y="10.3" width="2.9" height="2.9"/>
<rect x="4.2" y="14.7" width="2.9" height="2.9"/>
<rect x="8.3" y="14.7" width="2.9" height="2.9"/>
<rect x="12.6" y="14.7" width="2.9" height="2.9"/>
<rect x="16.9" y="14.7" width="2.9" height="2.9"/>
</svg>
