<?xml version="1.0" encoding="utf-8"?>
<!-- Generator: Adobe Illustrator 23.0.4, SVG Export Plug-In . SVG Version: 6.00 Build 0)  -->
<svg version="1.1" id="Layer_1" xmlns="http://www.w3.org/2000/svg" xmlns:xlink="http://www.w3.org/1999/xlink" x="0px" y="0px"
	 viewBox="0 0 24 24" style="enable-background:new 0 0 24 24;" xml:space="preserve">
<title>Icon / Play - small - off</title>
<desc>Created with Sketch.</desc>
<g id="Symbols">
	<g transform="translate(-29.000000, -21.000000)">
		<g transform="translate(30.000000, 22.000000)">
			<path d="M11,23C4.4,23-1,17.6-1,11S4.4-1,11-1s12,5.4,12,12S17.6,23,11,23z M11,0.5C5.2,0.5,0.5,5.2,0.5,11S5.2,21.5,11,21.5
				S21.5,16.8,21.5,11S16.8,0.5,11,0.5z"/>
			<path id="Combined-Shape" d="M12.5,10.2h3.8c0.4,0,0.8,0.3,0.8,0.8v0.8c0,0.4-0.3,0.8-0.8,0.8h-3.8v3.8c0,0.4-0.3,0.8-0.8,0.8H11
				c-0.4,0-0.8-0.3-0.8-0.8v-3.8H6.5c-0.4,0-0.8-0.3-0.8-0.8V11c0-0.4,0.3-0.8,0.8-0.8h3.8V6.5c0-0.4,0.3-0.8,0.8-0.8h0.8
				c0.4,0,0.8,0.3,0.8,0.8V10.2z"/>
		</g>
	</g>
</g>
</svg>
