<?xml version="1.0" encoding="utf-8"?>
<!-- Generator: Adobe Illustrator 23.0.4, SVG Export Plug-In . SVG Version: 6.00 Build 0)  -->
<svg version="1.1" id="Layer_1" xmlns="http://www.w3.org/2000/svg" xmlns:xlink="http://www.w3.org/1999/xlink" x="0px" y="0px"
	 viewBox="0 0 32 34" style="enable-background:new 0 0 32 34;" xml:space="preserve">
<title>Icon / Home 50%</title>
<desc>Created with Sketch.</desc>
<g id="Page-1">
	<g id="Visual-CTV-Home-Hero-Carousel" transform="translate(-1013.000000, -93.000000)">
		<g id="Group-5" transform="translate(786.000000, 76.000000)">
			<path id="Shape" d="M257.5,45.8l-6.9-6.9c3.6-4.9,3.2-11.9-1.2-16.3c-2.4-2.4-5.5-3.7-8.8-3.7c-3.3,0-6.5,1.3-8.8,3.7
				c-2.4,2.4-3.7,5.5-3.7,8.8c0,3.3,1.3,6.5,3.7,8.8c2.4,2.4,5.5,3.7,8.8,3.7c2.7,0,5.3-0.9,7.4-2.5l6.9,6.9
				c0.3,0.3,0.8,0.5,1.3,0.5c0.5,0,1-0.2,1.3-0.5c0.3-0.3,0.5-0.8,0.5-1.3S257.8,46.2,257.5,45.8z M240.5,22.7
				c2.4,0,4.6,0.9,6.2,2.6c1.7,1.7,2.6,3.9,2.6,6.2s-0.9,4.6-2.6,6.2c-1.7,1.7-3.9,2.6-6.2,2.6c-2.4,0-4.6-0.9-6.2-2.6
				c-1.7-1.7-2.6-3.9-2.6-6.2c0-2.4,0.9-4.6,2.6-6.2C235.9,23.6,238.2,22.7,240.5,22.7z"/>
		</g>
	</g>
</g>
</svg>
