<?xml version="1.0" encoding="utf-8"?>
<!-- Generator: Adobe Illustrator 23.0.4, SVG Export Plug-In . SVG Version: 6.00 Build 0)  -->
<svg version="1.1" id="Layer_1" xmlns="http://www.w3.org/2000/svg" xmlns:xlink="http://www.w3.org/1999/xlink" x="0px" y="0px"
	 viewBox="0 0 72 32" style="enable-background:new 0 0 72 32;" xml:space="preserve">
<style type="text/css">
	.st0{fill:#FFFFFF;}
	.st1{fill-rule:evenodd;clip-rule:evenodd;fill:#FFFFFF;}
</style>
<title>Icon / Live - white</title>
<desc>Created with Sketch.</desc>
<g>
	<path class="st0" d="M68,32H4c-2.2,0-4-1.8-4-4V4c0-2.2,1.8-4,4-4h64c2.2,0,4,1.8,4,4v24C72,30.2,70.2,32,68,32z M4,2
		C2.9,2,2,2.9,2,4v24c0,1.1,0.9,2,2,2h64c1.1,0,2-0.9,2-2V4c0-1.1-0.9-2-2-2H4z"/>
	<path id="LIVE" class="st1" d="M22.1,23H13V7.6h3.5v12.6h5.7V23z M29.7,23h-3.5V7.6h3.5V23z M48,7.6L42.7,23h-3.9L33.5,7.6h3.7
		l3.2,10.7c0.2,0.6,0.3,1.1,0.3,1.5h0.1c0.1-0.5,0.2-1.1,0.3-1.6l3.2-10.7H48z M61.1,23h-9.2V7.6h8.9v2.8h-5.4v3.4h5v2.8h-5v3.5h5.8
		V23z"/>
</g>
</svg>
