<?xml version="1.0" encoding="utf-8"?>
<!-- Generator: Adobe Illustrator 23.0.4, SVG Export Plug-In . SVG Version: 6.00 Build 0)  -->
<svg version="1.1" id="Layer_1" xmlns="http://www.w3.org/2000/svg" xmlns:xlink="http://www.w3.org/1999/xlink" x="0px" y="0px"
	 viewBox="0 0 32 34" style="enable-background:new 0 0 32 34;" xml:space="preserve">
<style type="text/css">
	.st0{font-family:'HelveticaNeue-Bold';}
	.st1{font-size:2.149062e-02px;}
</style>
<title>Icon / Home 50%</title>
<desc>Created with Sketch.</desc>
<g>
	<path d="M21.5,16c0.2-0.1,0.3-0.1,0.5,0c0,0,0.1,0.1,0.1,0.1c0.1,0.1,0,0.3-0.2,0.3c-0.1,0-0.2,0-0.3,0c-0.1,0-0.1,0.1-0.2,0
		c-0.1-0.1-0.1-0.2,0-0.3C21.4,16,21.5,16,21.5,16z"/>
	<path d="M19.9,14.9c0,0,0,0.2,0,0.2c0,0,0.1,0.1,0.1,0.2c0.2,0,0.3,0,0.5,0.1c0,0,0,0,0,0c0.1,0,0.1-0.3,0.1-0.3c0,0,0-0.1,0-0.1
		c-0.2,0-0.3-0.3-0.3-0.3L19.9,14.9z"/>
	<path d="M19.9,14.7l0.2,0c0.4,0,0.2,0.2,0.5,0.3c0,0,0.2,0.1,0.2,0.1c0,0,0,0.2,0,0.3c-0.1,0.5-0.5,0.5-0.5,0.4
		c-0.1-0.1-0.1-0.2-0.4-0.1c-0.1,0-0.4,0-0.4-0.1c0-0.1,0-0.1,0.1-0.2c-0.1-0.1,0-0.2,0-0.4C19.6,14.7,19.7,14.7,19.9,14.7z"/>
	<path d="M17.7,15.1L17.7,15.1c0.1,0.1,0,0.2,0.3,0.3c0.2,0.1,0.3,0,0.4,0c0,0,0-0.1,0-0.1C18,15.2,18,15.3,17.7,15.1z"/>
	<path d="M17.6,15L17.6,15C17.6,15,17.7,15,17.6,15C17.6,15,17.6,15,17.6,15z"/>
	<path d="M16.7,14.7c0.2,0,0.3,0.1,0.3,0.1c0,0,0.1-0.1,0.2-0.1C16.9,14.6,16.9,14.7,16.7,14.7z"/>
	<path d="M16.4,15L16.4,15c0.1,0.1,0-0.2,0.3-0.3C16.5,14.7,16.4,14.8,16.4,15z"/>
	<path d="M16.3,14.7c0.2-0.3,0.6-0.3,0.9-0.2c0.5,0.2,0.7,0.5,0.8,0.5c0.1,0,0.4-0.1,0.5,0.1c0,0.1,0.1,0.3,0,0.4
		c0.1,0-0.3,0.2-0.5,0.2c-0.1,0-0.3-0.1-0.4-0.2c0,0-0.1-0.2-0.1-0.2c0,0,0,0,0,0c-0.1-0.1-0.1-0.1-0.2-0.2c-0.2-0.1-0.2,0.1-0.4,0
		c0,0-0.2-0.1-0.2-0.1c0,0.1,0,0.3-0.2,0.4c-0.2,0.1-0.3,0-0.3,0c0,0,0-0.2,0-0.2C16.3,15,16.2,14.9,16.3,14.7z"/>
	<path d="M12,33.5c-0.4-0.2,0.2-0.1,0.3-0.1l0.6,0c1,0,1.8,0.1,2.9,0.1c0.6,0,1.1-0.1,1.6-0.2c0,0-0.4-1.7-0.2-2.1
		c0.2-0.5,0.4-1,0.6-1.5c0.2-0.6,0.6-1.6,0.8-2.1c0.1-0.4,0.4-1.4,0-1.7c-0.3-0.2-0.7-0.4-1-0.6c-0.3-0.2-0.3-0.3-0.4-0.6
		c-0.1-0.3-0.4-1-0.5-1.2c-0.1-0.2-0.5-0.5-0.7-0.7c-0.1-0.1,0-0.4,0-0.4c0.1-0.4,0.2-1.2,0.4-1.6c0-0.1,0.7-0.6,0.7-0.6
		c0,0,0,0,0-0.1c0-0.1-0.1-1.1-0.1-1.1c0-0.1-0.1-0.2-0.1-0.3c0-0.1-0.3,0-0.3,0c-0.2,0-0.4,0.1-0.7,0c-0.3-0.1-0.6-0.2-0.8-0.4
		L14.6,18c-0.1-0.1-0.1-0.1-0.1-0.2c-0.1-0.3-0.1-0.4-0.4-0.5c-0.2-0.1-0.5-0.2-0.8-0.3c-0.5-0.1-0.5-0.2-0.7-0.5
		c-0.3-0.4-0.7,0-1.3-0.3c-0.1-0.1-0.2-0.1-0.4-0.2c-0.4-0.2-0.6-0.4-1-0.6c-0.5-0.4-0.6-0.5-0.8-1.2c-0.1-0.5-0.2-0.7-0.5-1.2
		c-0.2-0.4-0.2-0.3-0.4-0.7c0.2,0.5,0.3,0.7,0.3,1.2c0,0.4,0,0.4-0.3,0.1c-0.5-0.4-0.5-0.6-0.8-1.1c-0.3-0.5-0.1-0.4-0.2-0.9
		C7.3,11.2,7.2,11,7,10.6C6.8,10,6.6,9,6.8,8.3c0.2-0.6,0.8-1.3,1-2C7.9,6,8.2,4.6,8.2,4.3c0-0.4,0-0.7-0.5-0.6L7.3,3.8
		C7,3.9,6.3,4,6,3.8C5.8,3.6,6,3.3,6,3.3C6.1,3.1,6.6,3,6.9,2.8c0.2-0.2,0.4-0.4,0.7-0.6C7.3,2.3,7,2.5,6.8,2.2c-1,0.7-2,1.5-3,2.4
		c-6.7,6.7-6.7,17.6,0,24.4C6.1,31.3,9,32.8,12,33.5z"/>
	<path d="M30.8,7.9c0.5,0.9,0.9,1.9,1.2,2.8c1.1,3.5,0.5,10.3,0.5,8.8c0,0-0.3-0.3-0.2-0.8c0-1.4,0.5-1.5-0.5-2.2
		c-0.3-0.2-0.6-0.8-1-1.1c-0.2-0.2-0.2-0.3-0.3-0.6c0-0.2-0.3-1.8-0.4-1.8c-0.3-0.9-0.3-1-0.4-2c-0.1-1.2-0.3-1.3-0.7-2.4
		c-0.1-0.4-0.2-0.4-0.5-0.7c-0.3-0.4-0.6-0.8-0.9-1.1c-0.2-0.2-0.2-0.3-0.2-0.6c0-0.4-0.1-0.4-0.4-0.7c-0.4-0.4-0.4-0.5-1-0.6
		c-0.6-0.2-0.6-0.3-1-0.8c-0.1-0.2-0.3-0.3-0.4-0.4c-0.1-0.2-0.2-0.3-0.4-0.5c-0.3-0.3-1-0.8-1.4-1l-1.8-1c-0.2-0.1-0.3-0.2-0.5-0.3
		c-0.3-0.1-0.7-0.2-1-0.2c-0.5,0-0.8,0.3-1,0c0,0-0.1-0.2-0.3-0.2c-0.2-0.1-0.8-0.1-1.1-0.2C16.8,0,16.3,0,15.7,0
		c-0.5,0-1.4,0-1.8,0c-0.5,0.1-2.2,0.6-2.8,0.8c-0.2,0.1-0.7,0.3-0.8,0.4c0,0.1,0.1,0.2,0.2,0.3c0.1,0.1,0.2,0.3,0.3,0.4
		C11.1,2,11.4,2,11.7,2c0.3,0.1,0.3,0,0.4-0.1c0.1-0.1,1-0.7,1-0.6c0.5-0.2,0.7-0.3,1.1,0c0.2,0.1,0.5,0.2,0.6,0.1
		c0.3-0.1,0.4-0.5,0.9-0.6c0.1,0,1.1,0,1.1,0c0.5-0.1,0.8-0.3,1.4-0.2C18.7,0.7,19.7,1,20,1.3c0.1,0.1,0.1,0.2,0.2,0.3
		c0,0.1,0,0.1,0.2,0.1c0.2,0,0.4,0,0.5,0.2c0.3,0.4,0.1,1.1,0.5,1.9c0.1,0.2,0.2,0.4,0,0.5c-0.2,0.1-0.6,0-0.9-0.1
		c-1-0.4-2-1.4-2.8-2.1c-0.3-0.2-0.3-0.3-0.6-0.2c-0.3,0-0.5,0-0.8-0.2c0.1,0.4,1.2,0.9,1.7,1.3c0.3,0.2,0.3,0.6,0.3,0.9
		c0,0,0,0.2,0,0.2c0,0-0.2,0.4-0.2,0.4c0.2,0.1,0.4-0.2,0.8,0c0.3,0.1,0.6,0.6,1,0.9c0.1,0,0.6,0.4,0.6,0.4c0,0,0.3,0.4,0.3,0.4
		c0,0,0.4,0.3,0.4,0.3c0.4,0.2,0.7,0.1,0.7,0.7c0,0.5-0.1,0.8-0.6,0.8c-0.4,0-0.9-0.1-1-0.6C20,7,20.1,6.8,19.8,7
		c-0.7,0.2,0.1,0.4,0.2,0.7c0.1,0.2,0,0.4,0,0.7c0,0.2-0.1,0.4-0.2,0.5c-0.3,0.1-0.7-0.5-1.1-0.2c-0.1,0.1-0.2,0.2-0.3,0.3l0,0
		c-0.3,0.4-0.4,0.4-0.6,0.7c-0.4,0.6-0.2,1.1-0.6,1.5c-0.3,0.4-0.8,0.5-0.9,0.6c-0.2,0.2,0.1,1.5-0.2,1.7l0,0
		c-0.2,0.2-0.3,0-0.4-0.2c-0.2-0.4-0.3-0.7-0.8-0.7c-0.4-0.1-1,0.1-1.4,0.1c-0.4,0-1.1-0.1-1.5,0.1c-0.2,0.1-0.2,0.4-0.3,0.6
		c-0.1,0.5-0.2,0.9,0,1.4c0.1,0.4,0.3,0.5,0.7,0.5c0.3,0,0.7-0.1,0.9-0.4c0.1-0.2,0.1-0.4,0.5-0.5c0.3-0.1,0.5,0,0.5,0.3l-0.1,0.6
		c-0.1,0.5-0.1,0.6-0.3,0.9c0.2,0.1,0.9,0,1.2,0.1c0.3,0.1,0.1,0.3,0.1,0.7c0,0.3,0,0.6,0.1,0.9c0.1,0.2,0.7,0.3,0.9,0.3
		c0.2,0,0.7,0.1,0.9,0c0.2,0,0.3-0.6,0.9-0.7c0.1,0,1.3,0.1,1.3,0.1c0.3,0.1,0.7,0.2,1,0.1c0.5-0.1,0.6-0.3,1.1,0
		c0,0,0.2,0.1,0.2,0.1l0.6,0.6c0.5,0.4,0.4,0.4,1,0.4l0.5,0c0.2,0,0.3,0,0.4,0.2c0.2,0.3,0.3,0.9,0.9,1.1c0.2,0.1,0.6,0.1,0.9,0.3
		c0.2,0.1,0.2,0.2,0.2,0.2c0.1,0,0.4,0.1,0.5,0.1c0.2,0.1,0.5,0.2,0.7,0.3c0.3,0.2,0.5,0.3,0.6,0.7c0.1,0.6-0.2,1.1-0.5,1.6
		c-0.3,0.4-0.5,0.8-0.6,1.3c-0.2,0.9,0,1.3-1.1,1.9c-0.9,0.5-1.4,0.5-2,1.5c-0.4,0.6-0.5,1.4-1.2,1.6c-0.4,0.1-1,0.1-1.2,0.2
		c-0.1,0.1-0.1,0.5-0.3,0.6c-0.1,0.1-0.6,0.2-0.8,0.2c-0.5,0.1-0.4,0.1-0.5,0.4c0,0.1-0.3,0.3-0.3,0.3c-0.6,0.5-0.6,0.6-0.9,1.2
		c-0.2,0.3-0.2,0.5,0.2,0.6c0.5,0.2,1,0,1.5-0.1c0.2,0,0.5-0.2,0.6,0c0,0.2-0.5,0.3-0.7,0.3c-1,0.3-1.9,0.6-2.8,0.7
		c3.9-0.4,7.6-2,10.6-5C33.9,23.3,34.8,14.5,30.8,7.9z"/>
</g>
<text transform="matrix(1 0 0 1 15.6382 17.0042)" class="st0 st1">Created by joni</text>
<text transform="matrix(1 0 0 1 15.4717 17.0042)" class="st0 st1">from the Noun Project</text>
</svg>
