<?xml version="1.0" encoding="utf-8"?>
<!-- Generator: Adobe Illustrator 24.3.0, SVG Export Plug-In . SVG Version: 6.00 Build 0)  -->
<svg version="1.1" id="Layer_1" xmlns="http://www.w3.org/2000/svg" xmlns:xlink="http://www.w3.org/1999/xlink" x="0px" y="0px"
	 viewBox="0 0 22 22" style="enable-background:new 0 0 22 22;" xml:space="preserve">
<style type="text/css">
	.st0{fill-rule:evenodd;clip-rule:evenodd;fill:#FFFFFF;}
	.st1{filter:url(#Adobe_OpacityMaskFilter);}
	.st2{mask:url(#mask-2_1_);}
</style>
<g id="Concepts">
	<g id="DTC-Channels-Concept-Player" transform="translate(-1053.000000, -953.000000)">
		<g id="Group-Copy" transform="translate(816.000000, 924.000000)">
			<g id="Icon_x2F_Player_x2F_Play" transform="translate(208.000000, 0.000000)">
				<g id="Combined-Shape">
					<path id="path-1_1_" class="st0" d="M49.4,29.1c0.8,0,1.5,0.7,1.5,1.5v18.8c0,0.8-0.7,1.5-1.5,1.5h-0.6c-0.8,0-1.5-0.7-1.5-1.5
						V30.6c0-0.8,0.7-1.5,1.5-1.5H49.4z M30.7,29.3L46.6,39c0.9,0.5,0.9,1.4,0,1.9l-15.9,9.7c-0.9,0.5-1.6,0.2-1.6-0.9V30.2
						C29.1,29.2,29.8,28.8,30.7,29.3z"/>
				</g>
				<defs>
					<filter id="Adobe_OpacityMaskFilter" filterUnits="userSpaceOnUse">
						<feColorMatrix  type="matrix" values="1 0 0 0 0  0 1 0 0 0  0 0 1 0 0  0 0 0 1 0"/>
					</filter>
				</defs>
				<mask maskUnits="userSpaceOnUse" id="mask-2_1_">
					<g class="st1">
						<path id="path-1_2_" class="st0" d="M49.4,29.1c0.8,0,1.5,0.7,1.5,1.5v18.8c0,0.8-0.7,1.5-1.5,1.5h-0.6
							c-0.8,0-1.5-0.7-1.5-1.5V30.6c0-0.8,0.7-1.5,1.5-1.5H49.4z M30.7,29.3L46.6,39c0.9,0.5,0.9,1.4,0,1.9l-15.9,9.7
							c-0.9,0.5-1.6,0.2-1.6-0.9V30.2C29.1,29.2,29.8,28.8,30.7,29.3z"/>
					</g>
				</mask>
				<g id="Group" class="st2">
				</g>
			</g>
		</g>
	</g>
</g>
</svg>
