<?xml version="1.0" encoding="utf-8"?>
<!-- Generator: Adobe Illustrator 23.1.0, SVG Export Plug-In . SVG Version: 6.00 Build 0)  -->
<svg version="1.1" id="Layer_1" xmlns="http://www.w3.org/2000/svg" xmlns:xlink="http://www.w3.org/1999/xlink" x="0px" y="0px"
	 viewBox="0 0 38.1 29.3" style="enable-background:new 0 0 38.1 29.3;" xml:space="preserve">
<g>
	<path d="M27.7,11.1c-0.8-0.9-2-1.4-3.3-1.4c-1.3,0-2.5,0.5-3.3,1.4l0,0l0,0c-0.6,0.6-1,1.3-1.2,2.2H28c0.5,0,0.8,0,1-0.1
		C28.7,12.5,28.3,11.7,27.7,11.1L27.7,11.1z"/>
	<path d="M20,16c0.2,0.6,0.6,1.2,1.1,1.8c0.8,0.9,2,1.4,3.3,1.4c1.2,0,2.4-0.5,3.3-1.4l0,0c0.5-0.5,0.9-1,1.1-1.7
		C28.6,16,28.3,16,28,16H20z"/>
	<path d="M12,16H1.3C0,16,0,16,0,17.3V28c0,1.3,0,1.3,1.3,1.3H12c1.3,0,1.3,0,1.3-1.3V17.3C13.3,16,13.3,16,12,16z"/>
	<path d="M12,0H1.3C0,0,0,0,0,1.3V12c0,1.3,0,1.3,1.3,1.3H12c1.3,0,1.3,0,1.3-1.3V1.3C13.3,0,13.3,0,12,0z"/>
	<path d="M24.4,2.3c1.7,0,3.3,0.4,4.9,1.1v-2C29.3,0,29.3,0,28,0H17.3C16,0,16,0,16,1.3v4.4C18.2,3.6,21.3,2.3,24.4,2.3z"/>
	<path d="M28.8,25.6c-1.4,0.6-2.9,0.8-4.4,0.8c-3.2,0-6.1-1.2-8.4-3.5V28c0,1.3,0,1.3,1.3,1.3H28c1.3,0,1.3,0,1.3-1.3v-1.9
		L28.8,25.6z"/>
</g>
<path d="M37.7,25.8l-5.5-5.5c2.8-3.9,2.5-9.4-1-12.9c-1.9-1.9-4.3-2.9-7-2.9c-2.6,0-5.1,1-7,2.9c-1.9,1.9-2.9,4.3-2.9,7
	c0,2.6,1,5.1,2.9,7c1.9,1.9,4.3,2.9,7,2.9c2.1,0,4.2-0.7,5.8-2l5.5,5.5c0.2,0.2,0.6,0.4,1,0.4c0.4,0,0.8-0.2,1-0.4
	c0.2-0.2,0.4-0.6,0.4-1C38.1,26.3,38,26.1,37.7,25.8z M29.1,19.3c-1.3,1.3-3.1,2-4.9,2c-1.9,0-3.6-0.7-4.9-2c-1.3-1.3-2-3.1-2-4.9
	c0-1.9,0.7-3.6,2-4.9c1.3-1.4,3.1-2,4.9-2c1.9,0,3.6,0.7,4.9,2c1.3,1.3,2,3.1,2,4.9C31.2,16.3,30.5,18.1,29.1,19.3z"/>
</svg>
