<?xml version="1.0" encoding="utf-8"?>
<!-- Generator: Adobe Illustrator 24.0.0, SVG Export Plug-In . SVG Version: 6.00 Build 0)  -->
<svg version="1.1" id="Layer_1" xmlns="http://www.w3.org/2000/svg" xmlns:xlink="http://www.w3.org/1999/xlink" x="0px" y="0px"
	 viewBox="0 0 40 29.4" style="enable-background:new 0 0 40 29.4;" xml:space="preserve">
<g>
	<path d="M34.2,0.5c-0.7-0.7-1.9-0.7-2.6,0s-0.7,1.9,0,2.6c6.4,6.4,6.4,16.8,0,23.2c-0.7,0.7-0.7,1.9,0,2.6c0.3,0.3,0.8,0.5,1.3,0.5
		s0.9-0.2,1.3-0.5C42,21.1,42,8.3,34.2,0.5z"/>
	<path d="M28.1,6.5c-0.7-0.7-1.9-0.7-2.6,0c-0.7,0.7-0.7,1.9,0,2.6c3.1,3.1,3.1,8.1,0,11.2c-0.7,0.7-0.7,1.9,0,2.6
		c0.3,0.3,0.8,0.5,1.3,0.5c0.5,0,0.9-0.2,1.3-0.5C32.7,18.4,32.6,11,28.1,6.5z"/>
	<path d="M8.4,3.1c0.7-0.7,0.7-1.9,0-2.6s-1.9-0.7-2.6,0c-7.8,7.8-7.8,20.5,0,28.3c0.3,0.3,0.8,0.5,1.3,0.5s0.9-0.2,1.3-0.5
		c0.7-0.7,0.7-1.9,0-2.6C2,19.9,2,9.5,8.4,3.1z"/>
	<path d="M14.4,9.1c0.7-0.7,0.7-1.9,0-2.6c-0.7-0.7-1.9-0.7-2.6,0c-4.5,4.5-4.5,11.8,0,16.3c0.3,0.3,0.8,0.5,1.3,0.5
		s0.9-0.2,1.3-0.5c0.7-0.7,0.7-1.9,0-2.6C11.3,17.2,11.3,12.2,14.4,9.1z"/>
</g>
<circle cx="20" cy="14.7" r="3.1"/>
</svg>
