<?xml version="1.0" encoding="utf-8"?>
<!-- Generator: Adobe Illustrator 24.3.0, SVG Export Plug-In . SVG Version: 6.00 Build 0)  -->
<svg version="1.1" id="Layer_1" xmlns="http://www.w3.org/2000/svg" xmlns:xlink="http://www.w3.org/1999/xlink" x="0px" y="0px"
	 viewBox="0 0 48 48" style="enable-background:new 0 0 48 48;" xml:space="preserve">
<style type="text/css">
	.st0{fill-rule:evenodd;clip-rule:evenodd;fill:#FFFFFF;}
</style>
<g id="Concepts">
	<g id="DTC-Channels-Concept-Player" transform="translate(-832.000000, -940.000000)">
		<g id="Group-Copy" transform="translate(816.000000, 924.000000)">
			<g id="Pause-Copy-3" transform="translate(40.000000, 40.000000) scale(-1, 1) translate(-40.000000, -40.000000) ">
				
					<g id="Icon-Container_x2F_large-_x28_56x56_x29_" transform="translate(40.000000, 40.000000) scale(-1, 1) translate(-40.000000, -40.000000) ">
					<g id="RW" transform="translate(16.363636, 16.363636)">
						<path id="Fill-1" class="st0" d="M0,23.7c0-1.5,2.3-1.5,2.4,0c0.1,9.8,6.8,18.4,16.5,20.5c7.5,1.6,15.4-1,20.5-6.8
							c5.1-5.7,6.7-13.9,4.2-21C41.1,9,34.3,3.5,26.6,2.5c-7.7-1-15.2,2.3-19.9,8.4c2,0.1,4,0.1,6,0.2c1.5,0.1,1.5,2.4,0,2.3
							c-2.8-0.1-5.6-0.2-8.5-0.2c-0.7,0-1.1-0.5-1.2-1.2C2.9,9.2,2.8,6.3,2.7,3.5C2.6,2,5,2,5,3.5C5.1,5.4,5.2,7.2,5.2,9
							c5.9-7.2,15.3-10.7,24.5-8.3c8.3,2.2,15,9,16.8,17.5c1.8,8.5-1.2,17.6-7.9,23.2c-6.6,5.5-15.9,7.1-23.9,4
							C5.8,41.9,0.2,33.3,0,23.7z"/>
					</g>
				</g>
			</g>
		</g>
	</g>
</g>
</svg>
