<?xml version="1.0" encoding="utf-8"?>
<!-- Generator: Adobe Illustrator 23.1.1, SVG Export Plug-In . SVG Version: 6.00 Build 0)  -->
<svg version="1.1" id="Layer_1" xmlns="http://www.w3.org/2000/svg" xmlns:xlink="http://www.w3.org/1999/xlink" x="0px" y="0px"
	 viewBox="0 0 20 18" style="enable-background:new 0 0 20 18;" xml:space="preserve">
<style type="text/css">
	.st0{fill-rule:evenodd;clip-rule:evenodd;fill:#FFFFFF;}
</style>
<title>Pause</title>
<path class="st0" d="M16.5,0c0.6,0,1,0.4,1,1v16c0,0.6-0.4,1-1,1H14c-0.6,0-1-0.4-1-1V1c0-0.6,0.4-1,1-1H16.5z M6,0c0.6,0,1,0.4,1,1
	v16c0,0.6-0.4,1-1,1H3.5c-0.6,0-1-0.4-1-1V1c0-0.6,0.4-1,1-1H6z"/>
</svg>
