<?xml version="1.0" encoding="utf-8"?>
<!-- Generator: Adobe Illustrator 23.0.4, SVG Export Plug-In . SVG Version: 6.00 Build 0)  -->
<svg version="1.1" id="Layer_1" xmlns="http://www.w3.org/2000/svg" xmlns:xlink="http://www.w3.org/1999/xlink" x="0px" y="0px"
	 viewBox="0 0 40 40" style="enable-background:new 0 0 40 40;" xml:space="preserve">
<style type="text/css">
	.st0{fill-rule:evenodd;clip-rule:evenodd;}
</style>
<title>Fill 1</title>
<desc>Created with Sketch.</desc>
<g id="Symbols">
	<g id="Badge-Live-Camera" transform="translate(-10.000000, -13.000000)">
		<g id="Group">
			<path id="Fill-1" class="st0" d="M49.9,45.1c-2.9-2.9-5.8-5.8-8.7-8.7c0,0-0.1,0-0.1,0v0.4c0,2.3,0,4.6,0,6.9
				c0,0.3,0,0.6-0.1,0.9c-0.2,0.9-1,1.5-2,1.6c-0.1,0-0.2,0-0.3,0c-8.8,0-17.5,0-26.3,0c-0.4,0-0.8-0.1-1.1-0.2
				c-0.7-0.2-1.1-0.8-1.3-1.5c0-0.2-0.1-0.5-0.1-0.7c0-7.2,0-14.5,0-21.7c0-0.3,0-0.6,0.1-0.9c0.2-0.9,1-1.5,2-1.6
				c0.1,0,0.3,0,0.4,0c8.7,0,17.3,0,26,0c0.3,0,0.5,0,0.8,0.1c0.9,0.2,1.5,0.8,1.7,1.7c0,0.2,0.1,0.5,0.1,0.8c0,2.3,0,4.6,0,6.9v0.4
				c0,0,0.1,0,0.1,0c2.9-2.9,5.8-5.8,8.7-8.7c0,0,0.1,0,0.1,0V33v12.1C50,45.1,49.9,45.1,49.9,45.1"/>
		</g>
	</g>
</g>
</svg>
