<?xml version="1.0" encoding="utf-8"?>
<!-- Generator: Adobe Illustrator 24.0.1, SVG Export Plug-In . SVG Version: 6.00 Build 0)  -->
<svg version="1.1" id="Layer_1" xmlns="http://www.w3.org/2000/svg" xmlns:xlink="http://www.w3.org/1999/xlink" x="0px" y="0px"
	 viewBox="0 0 40 40" style="enable-background:new 0 0 40 40;" xml:space="preserve">
<path d="M17.8,40c-1.7,0-3.1-1.4-3.1-3.1v-3.7c-1.3-0.5-2.5-1.2-3.6-2l-3.2,1.9c-0.4,0.3-0.9,0.4-1.5,0.4c-1.1,0-2.1-0.6-2.6-1.5
	l-2.2-3.8c-0.4-0.7-0.5-1.5-0.3-2.3c0.2-0.8,0.7-1.4,1.4-1.8l3.2-1.8c-0.1-0.6-0.2-1.3-0.2-2c0-0.7,0.1-1.4,0.2-2.1l-3.2-1.9
	c-1.4-0.9-1.9-2.7-1.1-4.2l2.2-3.8c0.5-1,1.5-1.5,2.6-1.5c0.5,0,1,0.2,1.3,0.2l0.1,0l3.4,1.9c1.2-0.9,2.3-1.5,3.5-2V3.1
	c0-0.8,0.4-1.6,0.9-2.2C16.1,0.3,16.9,0,17.8,0h4.4c1.7,0,3.1,1.4,3.1,3.1v4c1.3,0.5,2.5,1.2,3.6,2l3.2-1.9C32.5,7,33,6.8,33.6,6.8
	c1.1,0,2.1,0.6,2.6,1.5l2.2,3.8c0.4,0.7,0.5,1.5,0.3,2.3c-0.2,0.8-0.7,1.4-1.4,1.8l-3.2,1.8c0.1,0.6,0.2,1.3,0.2,2
	c0,0.7-0.1,1.3-0.2,2l3.2,1.8c0.7,0.3,1.1,0.9,1.4,1.8c0.3,0.9,0.1,1.8-0.4,2.4L36.2,32c-0.5,1-1.5,1.5-2.6,1.5
	c-0.6,0-1.2-0.2-1.6-0.4l-3.2-1.9c-1.2,0.9-2.3,1.5-3.5,2v3.7c0,1.7-1.4,3.1-3.1,3.1H17.8z M11.5,28.1c0.2,0,0.6,0,1,0.4
	c1.2,1.1,2.6,1.9,4.2,2.4l0.1,0l0.1,0c0.5,0.3,0.8,0.8,0.8,1.3v4.8c0,0.1,0.1,0.2,0.2,0.2h4.4c0.1,0,0.2-0.1,0.2-0.2v-4.8
	c0-0.6,0.3-1.1,0.8-1.3l0.1,0l0.1,0c1.7-0.6,3-1.4,4.2-2.5c0.3-0.3,0.7-0.4,1-0.4c0.2,0,0.4,0.1,0.7,0.2l4.2,2.4c0,0,0.1,0,0.2,0.1
	c0.1,0,0.1,0,0.1,0l2.2-3.9c0,0-0.1-0.1-0.1-0.1l0-0.1c0-0.1,0-0.1-0.2-0.2L31.6,24C31,23.7,31,22.9,31,22.7v-0.1l0-0.1
	c0.2-0.8,0.3-1.6,0.3-2.5c0-0.8-0.1-1.6-0.2-2.4c-0.1-0.3-0.1-0.6,0-0.8c0.1-0.3,0.4-0.6,0.7-0.8l4.1-2.4c0.1,0,0.1-0.1,0.1-0.1
	c0-0.1,0-0.2,0-0.2l-2.2-3.8c0-0.1-0.1-0.1-0.2-0.1c0,0-0.1,0.1-0.1,0.1l-4.1,2.4C29,12,28.8,12,28.6,12c-0.4,0-0.6-0.1-0.8-0.2
	l-0.1-0.1l-0.1-0.1c-1.2-1.1-2.6-1.9-4.2-2.5l-0.1,0l-0.1,0c-0.5-0.3-0.8-0.8-0.8-1.3V3c0-0.1-0.1-0.2-0.2-0.2h-4.4
	c0,0-0.1,0-0.2,0.1C17.5,3,17.5,3,17.5,3.1v4.8c0,0.6-0.3,1.1-0.8,1.3l-0.1,0l-0.1,0c-1.7,0.6-3,1.4-4.2,2.5c-0.3,0.3-0.7,0.4-1,0.4
	c-0.2,0-0.4-0.1-0.7-0.2L6.5,9.5c0,0-0.1,0-0.2-0.1c-0.1,0-0.1,0-0.1,0l-2.2,3.9c0,0,0,0.1,0,0.2c0,0,0,0.1,0.1,0.1l4.2,2.4
	c0.7,0.3,0.7,1.1,0.7,1.3v0.1l0,0.1c-0.2,0.8-0.3,1.6-0.3,2.5c0,0.8,0.1,1.6,0.2,2.5c0.2,0.6-0.1,1.2-0.6,1.5l-3.7,2.5l-0.1,0
	c0,0-0.1,0.1-0.1,0.1c0,0.1,0,0.2,0,0.2l2.2,3.8c0,0.1,0.1,0.1,0.2,0.1c0,0,0.1-0.1,0.1-0.1l3.9-2.2C10.8,28.3,11.1,28.1,11.5,28.1z
	"/>
<path d="M20,27.6c-4.1,0-7.5-3.3-7.5-7.5c0-2,0.8-3.9,2.2-5.3c1.4-1.4,3.3-2.2,5.3-2.2c4.2,0,7.5,3.3,7.5,7.5
	C27.4,24.2,24.1,27.6,20,27.6z M19.9,15.5c-1.2,0-2.4,0.5-3.2,1.3c-0.9,0.9-1.3,2-1.3,3.2c0,2.5,2.1,4.6,4.7,4.6
	c2.5,0,4.6-2.1,4.6-4.6C24.5,17.6,22.4,15.5,19.9,15.5z"/>
</svg>
