<?xml version="1.0" encoding="UTF-8"?>
<svg width="56px" height="28px" viewBox="0 0 56 28" version="1.1" xmlns="http://www.w3.org/2000/svg" xmlns:xlink="http://www.w3.org/1999/xlink">
    <title>Badge/4k-UHD</title>
    <g id="Page-1" stroke="none" stroke-width="1" fill="none" fill-rule="evenodd">
        <g id="Cards-2" transform="translate(-708.000000, -972.000000)" fill="#FFFFFF">
            <g id="Group-7" transform="translate(67.000000, 553.000000)">
                <g id="Group-6" transform="translate(527.000000, 12.000000)">
                    <g id="Group" transform="translate(24.000000, 403.000000)">
                        <g id="Badge/4k-UHD" transform="translate(90.000000, 4.000000)">
                            <path d="M52,0 C54.209139,3.07431771e-15 56,1.790861 56,4 L56,24 C56,26.209139 54.209139,28 52,28 L4,28 C1.790861,28 1.78856188e-15,26.209139 0,24 L0,4 C-7.1463071e-16,1.790861 1.790861,-3.82769592e-17 4,0 L52,0 Z M12.109375,8.7265625 L9.2421875,8.7265625 L9.2421875,16 C9.2421875,18.53125 11.1640625,20.1953125 14.1015625,20.1953125 C17.03125,20.1953125 18.953125,18.53125 18.953125,16 L18.953125,8.7265625 L16.0859375,8.7265625 L16.0859375,15.6953125 C16.0859375,17.0078125 15.375,17.7890625 14.1015625,17.7890625 C12.8203125,17.7890625 12.109375,17.0078125 12.109375,15.6953125 L12.109375,8.7265625 Z M25.0234375,8.7265625 L22.15625,8.7265625 L22.15625,20 L25.0234375,20 L25.0234375,15.4609375 L29.515625,15.4609375 L29.515625,20 L32.375,20 L32.375,8.7265625 L29.515625,8.7265625 L29.515625,13.1484375 L25.0234375,13.1484375 L25.0234375,8.7265625 Z M40.1640625,8.7265625 L35.5859375,8.7265625 L35.5859375,20 L40.1640625,20 C43.5625,20 45.5703125,17.8984375 45.5703125,14.296875 C45.5703125,10.703125 43.5703125,8.7265625 40.1640625,8.7265625 Z M39.7890625,11.0390625 C41.6015625,11.0390625 42.65625,12.1875 42.65625,14.3046875 C42.65625,16.5546875 41.65625,17.6875 39.7890625,17.6875 L38.453125,17.6875 L38.453125,11.0390625 L39.7890625,11.0390625 Z" id="Combined-Shape"></path>
                        </g>
                    </g>
                </g>
            </g>
        </g>
    </g>
</svg>